<?xml version="1.0" encoding="utf-8"?>
<!-- Generator: Adobe Illustrator 17.1.0, SVG Export Plug-In . SVG Version: 6.00 Build 0)  -->
<!DOCTYPE svg PUBLIC "-//W3C//DTD SVG 1.1//EN" "http://www.w3.org/Graphics/SVG/1.1/DTD/svg11.dtd">
<svg version="1.1" xmlns="http://www.w3.org/2000/svg" xmlns:xlink="http://www.w3.org/1999/xlink" x="0px" y="0px"
	 viewBox="0 0 1920 1920" enable-background="new 0 0 1920 1920" xml:space="preserve">
<g id="Layer_1">
</g>
<g id="Layer_2">
	<g>
		<g>
			<path fill="#0FFA00" d="M1023.7,603.1c4.1,15.5,7.9,33-0.7,46.5c-7.4,11.8-22.5,16.8-36.4,16.2c-13.9-0.5-27.2-5.6-40.4-9.9
				c-39.8-12.9-82.2-19.4-123.6-13.6c-35,4.9-68.3,18.3-99.5,34.7C622.8,729.8,540.3,815.7,491.5,918c-20.7,43.4-35.4,89.3-50,135
				c-18.4,57.7-61.2,119.8-35.5,174.6c14.8,31.6,38,59.1,66.3,79.3c8.2,5.9,36.7,16.7,36.5,25.6c-0.1,4-13.7,15.9-16.3,19.2
				c-6.5,8.2-12.7,16.5-19.1,24.8c-17.6,22.8-35.1,45.6-50.6,69.9c-51.9,81.2-79.8,179.4-101.4,273.4c-4.5,0-9,0-13.5,0
				c30.8-5.7,61.8-11.3,93.1-10.9c13.2,0.2,26.4,1.5,39.6,2.8c8.8,0.9,17.2,3.4,26.1,4.3c73.2-140.3,193.4-255.6,336.7-322.9
				c132.6-62.3,281.8-83.2,428.3-79.7c44.7,1.1,90.4,4.6,131.6,22c41.4,17.4,76,47.8,106.5,80.8c74.8,81,133.4,182.5,160.4,289.5
				c-1.9,0.5-3.7,1-5.6,1.5c32.4,2.3,65.8,3.4,98.3,2c-5.1-58.4-10.1-116.8-15.2-175.3c-1.6-19-3.3-38-6.8-56.8
				c-3.8-20.3-9.7-40.1-15.6-59.9c-30.3-101.3-62.6-200.9-120.9-289.1c-0.7,1.1,0.4,2.8,1.7,2.6c1.3-0.2,1.8-2.2,0.7-3
				c-50.5-2.8-92.9-37-135.7-64c-38.5-24.3-80.2-43.8-124.1-55.5c-15.1-4-30.5-7.2-45.7-11c-111.6-28.1-198-114.8-305.5-155.7
				c-20.6-7.8-42-14.4-64.1-15.3c-36.7-1.4-72.4,13.4-103.4,33.1c-31,19.7-58.5,44.5-88.1,66.2c-8,5.9-17.8,7-26.8,11.2
				c-3.7,1.7-7.3,3.4-11,5.1c28.5-53,61.4-104.4,104.6-146.4c43.2-42,97.4-74.3,156.9-83.6c30.1-4.7,61.4-3.6,90.3-13.5
				c28.9-9.8,51.8-27.8,55.6-58c2.3-17.9,13.9-34.3,12.6-52.2c-1.1-15.8-12.2-29.3-24.4-39.3s-26.3-18.1-37.3-29.5
				c-11-11.5-18.2-27.5-13.7-42.7c48.2,2.5,97.1-13.5,134.4-44c9.5-7.8,18.4-16.6,24.3-27.4c16.4-29.9,6.2-67.7-11-97.1
				s-41-55.2-54-86.7c-4.6-11.2-8.8-21.6-12.1-33.2c-9.7,19.3-12.1,42.1-6.6,63c4.1,15.8,12.5,30.2,17.3,45.9
				c4.7,15.7,5.2,34.2-5.1,46.8c-11.1,13.6-30.6,16.1-48.1,17.6c-65.8,5.7-131.6,11.4-197.4,17.1c7,47.5,42.6,89,77.9,121.5
				S1011.5,556.7,1023.7,603.1z"/>
		</g>
	</g>
	<path fill="#FE0000" d="M1586.3,938.9c-38.6-28.5-82.1-51.4-114.4-86.8c-32.4-35.4-51.6-89-30.1-131.9
		c12.6-25.2,37.4-42.7,64.2-51.4c26.8-8.6,55.5-9.2,83.6-7.3c-22.6,4.4-41.2,24.3-44.2,47.1c-2.6,20,4.8,43.6-8.8,58.4
		c-12.3,13.4-38.4,14.4-42,32.3c-2.5,12.5,8.9,23.1,19.4,30.5c37,26,77.3,48.2,108.6,80.8c31.3,32.6,52.7,79.5,40.7,123.1
		c-11.8,42.8-52.6,71.8-94.6,86.2c2.1,7.5,4.1,15,6.2,22.5c-123.9,3-242.5-46.6-355-98.6c-112.5-52-226.7-108.1-350.1-119.3
		c-66.9-6.1-134.3,1.4-200.7,11.9c75.4-75.8,161.1-153.5,267.4-165.4c7.5-0.8,15.2-1.3,22.4,0.9c12.2,3.8,20.6,14.5,28.5,24.5
		c80.2,100.9,193.8,181.6,321.9,195.5c29.5,3.2,59.5,2.9,88.5,9.2c29,6.3,57.9,20.5,73.7,45.6c5.4,8.5,9.3,18.4,17.2,24.7
		c14.2,11.3,35,6.8,52.2,1c21.7-7.3,43.6-16.2,60-32.1c16.4-15.9,26.3-40.5,19.1-62.2C1614.5,961.4,1600.3,949.3,1586.3,938.9z"/>
	<path fill="#FE0000" d="M1023.1,1711.5c54.8-93.8,52.6-208.6,60.2-316.9c0.6-8.6,1.7-18.2,8.3-23.8c3.8-3.2,8.8-4.6,13.7-5.7
		c53.7-12.4,110.8-9.6,163,7.9c-33.2,117.1-79.1,230.6-136.6,337.9C1095.8,1704.6,1058.9,1704.8,1023.1,1711.5z"/>
	<g>
		<g>
			<path fill="#FE0000" d="M1040.2,582.1c-31-61.1-107.2-90.6-134.4-153.5c-5.1-11.8-8.4-24.6-15.5-35.3
				c-7.1-10.7-19.7-19.3-32.3-16.7c-70-6-145.3-12.9-214.2-26.4c-8.5-1.7-17.4-3.6-24.2-9.1c-6.7-5.5-10.4-15.8-5.8-23.1
				c2.6-4.1,7.1-6.5,11.4-8.8c50.5-26.8,99.1-65.5,116.9-119.8c8.6-26.2,7.3-59.5-14.8-76c-4.9,37.1-32.4,67.7-64,87.7
				c-31.6,20-67.6,31.6-101.8,46.6c-26.7,11.7-52.5,25.6-76.9,41.6c-30.3,19.8-61.3,47.7-61.7,83.9c-0.3,27.4,18,52.3,40.9,67.3
				c22.9,15.1,50,22,76.6,28.7c-33.6,2.7-68,5-100.4-3.8c-32.5-8.8-63.3-31-73.5-63.1c-3.6,41.6-10.4,82,2.4,121.7
				c6.8,20.9,19,41.4,38.6,51.5c7.6,3.9,16,6.1,24.3,8.2c17.9,4.6,35.8,9.2,53.7,13.9c0.4-2.1,0.7-4.3,1-6.5c1.4,2.1,2,4.7,1.6,7.1
				c-0.9-0.2-1.8-0.4-2.7-0.7c-9,49.9-44.9,86.6-78.6,125.5c-80.1,92.5-141.6,201-179.9,317.2c-22.5,68.2-37.2,140.9-26.1,211.9
				c15.6,99.9,45.8,219.7,135.6,266.1c3.8,2,7.5-2.7,9.3-6.5c24.6-53.1,48-110.6,95.5-144.9c-55.5-67.6-92.9-151.9-103.3-238.8
				c-2.9-24-3.5-49.7,8.1-70.9c-3.9,19.1,2.2,30.4,8.1,49c12.8,40.6,29.6,80.1,49.9,117.5c4.9-39,14-86.3,24.2-124.3
				c29.7-111.2,83-218.1,165.8-298.2c82.7-80.1,196.7-131,311.7-124.5c27.9,1.6,56.1,6.4,83.5,1.2c27.4-5.3,54.8-23.9,59.6-51.4
				C1051.6,611.2,1047.2,595.7,1040.2,582.1z M833.4,540c-25.3,4.2-52.3,0.8-74.5-12.2c-22.2-12.9-39-35.9-41.7-61.5
				c-0.4-3.6-0.5-7.3,0.9-10.6c1.4-3.3,4.8-6,8.4-5.6c2.2,0.2,4.1,1.5,5.9,2.8c37.5,26.2,74.9,52.4,112.4,78.6
				C844.7,536.7,838.5,539.1,833.4,540z"/>
		</g>
	</g>
</g>
</svg>
